<svg width="24" height="24" viewBox="0 0 24 24" fill="none" xmlns="http://www.w3.org/2000/svg">
<g id="Iconly/Bulk/Discovery">
<g id="Discovery">
<path id="Fill 1" opacity="0.4" d="M21.9999 11.9999C21.9999 17.5229 17.5229 21.9999 11.9999 21.9999C6.47688 21.9999 1.99988 17.5229 1.99988 11.9999C1.99988 6.47788 6.47688 1.99988 11.9999 1.99988C17.5229 1.99988 21.9999 6.47788 21.9999 11.9999Z" fill="#5D627B"/>
<path id="Fill 4" d="M15.8597 8.70493L14.2397 13.8249C14.1797 14.0349 14.0097 14.2049 13.7997 14.2659L8.69972 15.8649C8.35972 15.9759 8.02972 15.6449 8.13972 15.3049L9.73972 10.1749C9.79972 9.96493 9.96972 9.80493 10.1797 9.73493L15.2997 8.13493C15.6497 8.02493 15.9697 8.35493 15.8597 8.70493Z" fill="#5D627B"/>
</g>
</g>
</svg>
