<svg width="24" height="24" viewBox="0 0 24 24" fill="none" xmlns="http://www.w3.org/2000/svg">
<path opacity="0.4" d="M12.8905 17.2944C12.8905 17.8106 13.3145 18.2284 13.8383 18.2284L18.417 18.4858C19.0846 18.4858 19.625 17.9522 19.625 17.2944C19.625 16.6367 19.0846 16.1042 18.417 16.1042L13.8383 16.3605C13.3145 16.3605 12.8905 16.7783 12.8905 17.2944Z" fill="#5D627B"/>
<path d="M3.67345 16.0196C3.67345 16.0196 3.39789 16.2876 3.27793 16.4538C3.09264 16.6949 3 16.9922 3 17.2883C3 17.6206 3.10452 17.9296 3.30169 18.1812C3.34801 18.2269 3.5226 18.4211 3.68532 18.5815C4.6367 19.588 7.12026 21.2346 8.42083 21.7378C8.618 21.8174 9.11685 21.9895 9.38409 22C9.63827 22 9.88294 21.9438 10.1145 21.8291C10.4044 21.6688 10.6372 21.4172 10.7642 21.1199C10.8462 20.9139 10.9733 20.2972 10.9733 20.2855C11.1016 19.6102 11.1704 18.5124 11.1704 17.3C11.1704 16.1449 11.1016 15.0927 10.997 14.4069C10.9852 14.3952 10.8581 13.6298 10.7179 13.3665C10.4626 12.8867 9.96371 12.5882 9.43041 12.5882H9.38409C9.03608 12.5999 8.30444 12.8984 8.30444 12.9089C7.07394 13.4121 4.64858 14.9792 3.67345 16.0196Z" fill="#5D627B"/>
<path opacity="0.4" d="M11.1096 6.70534C11.1096 6.18922 10.6856 5.77142 10.1618 5.77142L5.58296 5.51511C4.91543 5.51511 4.375 6.04761 4.375 6.70534C4.375 7.36306 4.91543 7.89673 5.58296 7.89673L10.1618 7.63926C10.6856 7.63926 11.1096 7.22145 11.1096 6.70534Z" fill="#5D627B"/>
<path d="M13.8853 2.17085C13.5955 2.33118 13.3638 2.5828 13.2356 2.88006C13.1536 3.08604 13.0265 3.70397 13.0265 3.71451C12.8982 4.38978 12.8293 5.48755 12.8293 6.70001C12.8293 7.85512 12.8982 8.90724 13.0028 9.59306C13.0146 9.60476 13.1429 10.3702 13.2819 10.6335C13.5373 11.1145 14.0361 11.4117 14.5706 11.4117H14.6169C14.9649 11.4 15.6954 11.1028 15.6954 11.0911C16.9259 10.5878 19.3525 9.02194 20.3265 7.98035C20.3265 7.98035 20.6021 7.71234 20.7208 7.54616C20.9073 7.30624 21 7.00898 21 6.71054C21 6.37934 20.8954 6.07154 20.6983 5.81875C20.652 5.77311 20.4774 5.57884 20.3158 5.4185C19.3632 4.41319 16.8796 2.76537 15.5802 2.2633C15.383 2.18255 14.883 2.01051 14.6169 1.99998C14.3616 1.99998 14.1169 2.05615 13.8853 2.17085Z" fill="#5D627B"/>
</svg>
